<svg width="1280" height="658" viewBox="0 0 1280 658" fill="none" xmlns="http://www.w3.org/2000/svg">
<g clip-path="url(#clip0_940_286)">
<rect width="1280" height="720" fill="#F8FAFB"/>
<rect width="1280" height="720" fill="url(#paint0_linear_940_286)"/>
<rect y="19" width="1280" height="620" rx="60" fill="white" fill-opacity="0.15"/>
<path d="M8 397C8 385.954 16.9543 377 28 377H72V441H28C16.9543 441 8 432.046 8 421V397Z" fill="white" fill-opacity="0.3"/>
<path d="M8 309C8 297.954 16.9543 289 28 289H72V353H28C16.9543 353 8 344.046 8 333V309Z" fill="white" fill-opacity="0.3"/>
<rect x="72" y="34" width="1196" height="590" rx="60" fill="white" fill-opacity="0.3"/>
<rect x="72.5" y="34.5" width="1195" height="589" rx="59.5" stroke="white" stroke-opacity="0.6"/>
<g filter="url(#filter0_d_940_286)">
<rect x="1064" y="56" width="180" height="89" rx="26" fill="white" fill-opacity="0.54" shape-rendering="crispEdges"/>
<rect x="1064.5" y="56.5" width="179" height="88" rx="25.5" stroke="white" shape-rendering="crispEdges"/>
</g>
<g filter="url(#filter1_d_940_286)">
<rect x="820" y="56" width="180" height="89" rx="26" fill="white" fill-opacity="0.54" shape-rendering="crispEdges"/>
<rect x="820.5" y="56.5" width="179" height="88" rx="25.5" stroke="white" shape-rendering="crispEdges"/>
</g>
<path d="M8 133C8 121.954 16.9543 113 28 113H72V177H28C16.9543 177 8 168.046 8 157V133Z" fill="white" fill-opacity="0.3"/>
<g filter="url(#filter2_d_940_286)">
<rect x="576" y="56" width="180" height="89" rx="26" fill="white" fill-opacity="0.54" shape-rendering="crispEdges"/>
<rect x="576.5" y="56.5" width="179" height="88" rx="25.5" stroke="white" shape-rendering="crispEdges"/>
</g>
<g filter="url(#filter3_d_940_286)">
<rect x="96" y="171" width="754" height="429" rx="40" fill="white" fill-opacity="0.3" shape-rendering="crispEdges"/>
<rect x="96.5" y="171.5" width="753" height="428" rx="39.5" stroke="white" shape-rendering="crispEdges"/>
</g>
<g filter="url(#filter4_d_940_286)">
<rect x="874" y="171" width="370" height="429" rx="40" fill="white" fill-opacity="0.3" shape-rendering="crispEdges"/>
<rect x="874.5" y="171.5" width="369" height="428" rx="39.5" stroke="white" shape-rendering="crispEdges"/>
</g>
<mask id="path-19-inside-1_940_286" fill="white">
<path d="M8 221C8 209.954 16.9543 201 28 201H72V265H28C16.9543 265 8 256.046 8 245V221Z"/>
</mask>
<path d="M8 221C8 209.954 16.9543 201 28 201H72V265H28C16.9543 265 8 256.046 8 245V221Z" fill="white" fill-opacity="0.6"/>
<path d="M7 221C7 209.402 16.402 200 28 200H72V202H28C17.5066 202 9 210.507 9 221H7ZM72 266H28C16.402 266 7 256.598 7 245H9C9 255.493 17.5066 264 28 264H72V266ZM28 266C16.402 266 7 256.598 7 245V221C7 209.402 16.402 200 28 200V202C17.5066 202 9 210.507 9 221V245C9 255.493 17.5066 264 28 264V266ZM72 201V265V201Z" fill="white" fill-opacity="0.6" mask="url(#path-19-inside-1_940_286)"/>
</g>
<defs>
<filter id="filter0_d_940_286" x="1060" y="56" width="188" height="97" filterUnits="userSpaceOnUse" color-interpolation-filters="sRGB">
<feFlood flood-opacity="0" result="BackgroundImageFix"/>
<feColorMatrix in="SourceAlpha" type="matrix" values="0 0 0 0 0 0 0 0 0 0 0 0 0 0 0 0 0 0 127 0" result="hardAlpha"/>
<feOffset dy="4"/>
<feGaussianBlur stdDeviation="2"/>
<feComposite in2="hardAlpha" operator="out"/>
<feColorMatrix type="matrix" values="0 0 0 0 0 0 0 0 0 0 0 0 0 0 0 0 0 0 0.25 0"/>
<feBlend mode="normal" in2="BackgroundImageFix" result="effect1_dropShadow_940_286"/>
<feBlend mode="normal" in="SourceGraphic" in2="effect1_dropShadow_940_286" result="shape"/>
</filter>
<filter id="filter1_d_940_286" x="816" y="56" width="188" height="97" filterUnits="userSpaceOnUse" color-interpolation-filters="sRGB">
<feFlood flood-opacity="0" result="BackgroundImageFix"/>
<feColorMatrix in="SourceAlpha" type="matrix" values="0 0 0 0 0 0 0 0 0 0 0 0 0 0 0 0 0 0 127 0" result="hardAlpha"/>
<feOffset dy="4"/>
<feGaussianBlur stdDeviation="2"/>
<feComposite in2="hardAlpha" operator="out"/>
<feColorMatrix type="matrix" values="0 0 0 0 0 0 0 0 0 0 0 0 0 0 0 0 0 0 0.25 0"/>
<feBlend mode="normal" in2="BackgroundImageFix" result="effect1_dropShadow_940_286"/>
<feBlend mode="normal" in="SourceGraphic" in2="effect1_dropShadow_940_286" result="shape"/>
</filter>
<filter id="filter2_d_940_286" x="572" y="56" width="188" height="97" filterUnits="userSpaceOnUse" color-interpolation-filters="sRGB">
<feFlood flood-opacity="0" result="BackgroundImageFix"/>
<feColorMatrix in="SourceAlpha" type="matrix" values="0 0 0 0 0 0 0 0 0 0 0 0 0 0 0 0 0 0 127 0" result="hardAlpha"/>
<feOffset dy="4"/>
<feGaussianBlur stdDeviation="2"/>
<feComposite in2="hardAlpha" operator="out"/>
<feColorMatrix type="matrix" values="0 0 0 0 0 0 0 0 0 0 0 0 0 0 0 0 0 0 0.25 0"/>
<feBlend mode="normal" in2="BackgroundImageFix" result="effect1_dropShadow_940_286"/>
<feBlend mode="normal" in="SourceGraphic" in2="effect1_dropShadow_940_286" result="shape"/>
</filter>
<filter id="filter3_d_940_286" x="92" y="171" width="762" height="437" filterUnits="userSpaceOnUse" color-interpolation-filters="sRGB">
<feFlood flood-opacity="0" result="BackgroundImageFix"/>
<feColorMatrix in="SourceAlpha" type="matrix" values="0 0 0 0 0 0 0 0 0 0 0 0 0 0 0 0 0 0 127 0" result="hardAlpha"/>
<feOffset dy="4"/>
<feGaussianBlur stdDeviation="2"/>
<feComposite in2="hardAlpha" operator="out"/>
<feColorMatrix type="matrix" values="0 0 0 0 0 0 0 0 0 0 0 0 0 0 0 0 0 0 0.25 0"/>
<feBlend mode="normal" in2="BackgroundImageFix" result="effect1_dropShadow_940_286"/>
<feBlend mode="normal" in="SourceGraphic" in2="effect1_dropShadow_940_286" result="shape"/>
</filter>
<filter id="filter4_d_940_286" x="870" y="171" width="378" height="437" filterUnits="userSpaceOnUse" color-interpolation-filters="sRGB">
<feFlood flood-opacity="0" result="BackgroundImageFix"/>
<feColorMatrix in="SourceAlpha" type="matrix" values="0 0 0 0 0 0 0 0 0 0 0 0 0 0 0 0 0 0 127 0" result="hardAlpha"/>
<feOffset dy="4"/>
<feGaussianBlur stdDeviation="2"/>
<feComposite in2="hardAlpha" operator="out"/>
<feColorMatrix type="matrix" values="0 0 0 0 0 0 0 0 0 0 0 0 0 0 0 0 0 0 0.25 0"/>
<feBlend mode="normal" in2="BackgroundImageFix" result="effect1_dropShadow_940_286"/>
<feBlend mode="normal" in="SourceGraphic" in2="effect1_dropShadow_940_286" result="shape"/>
</filter>
<linearGradient id="paint0_linear_940_286" x1="659.5" y1="-7.22671e-08" x2="666.5" y2="660.5" gradientUnits="userSpaceOnUse">
<stop stop-color="#04134B"/>
<stop offset="1" stop-color="#5691E4"/>
</linearGradient>
<clipPath id="clip0_940_286">
<rect width="1280" height="658" fill="white"/>
</clipPath>
</defs>
</svg>
